<svg xmlns="http://www.w3.org/2000/svg" xmlns:xlink="http://www.w3.org/1999/xlink" viewBox="0 0 903.52 426.65"><defs><style>.cls-1{isolation:isolate;}.cls-12,.cls-2{fill:none;}.cls-12,.cls-13,.cls-2{stroke:#fff;stroke-miterlimit:10;}.cls-13,.cls-2{stroke-width:1.87px;}.cls-3{font-size:17.75px;}.cls-3,.cls-4,.cls-8,.cls-9{fill:#fff;font-family:LiGothicMed, Apple LiGothic;}.cls-4{font-size:17.55px;}.cls-5{letter-spacing:0.84em;}.cls-6{letter-spacing:1.63em;}.cls-7{letter-spacing:2.67em;}.cls-8{font-size:21px;}.cls-9{font-size:14.2px;}.cls-10{opacity:0.88;}.cls-11{opacity:0.75;mix-blend-mode:screen;}.cls-12{stroke-width:3px;}</style></defs><title>資產 1chart</title><g class="cls-1"><g id="圖層_2" data-name="圖層 2"><g id="圖層_1-2" data-name="圖層 1"><polyline class="cls-2" points="63.62 18.66 63.62 299.72 806.66 299.72"/><text class="cls-3" transform="translate(0 61.66)">600萬</text><text class="cls-3" transform="translate(3.75 14.79)">人次</text><text class="cls-4" transform="translate(8.44 380.82)">年份註：<tspan x="0" y="21.06">1. 國人赴中國大陸探親自1987年11月起開放。</tspan><tspan class="cls-5" x="347.89" y="21.06">	</tspan><tspan x="368.57" y="21.06">2. 成長率係指較上年同期增減比例。</tspan><tspan class="cls-6" x="649.94" y="21.06">	</tspan><tspan x="0" y="42.12">3. 細項數字不等於合計數係四捨五入之故。</tspan><tspan class="cls-6" x="334.03" y="42.12">	</tspan><tspan x="368.57" y="42.12">資料來源：中國大陸「國家旅遊局」、「中國旅遊研究院」。</tspan><tspan class="cls-7" x="842.44" y="42.12">	</tspan></text><text class="cls-3" transform="translate(0 268.43)">450萬</text><text class="cls-3" transform="translate(0 201.35)">500萬</text><text class="cls-3" transform="translate(0 134.27)">550萬</text><text class="cls-8" transform="translate(117.61 280.51)">448.4萬</text><text class="cls-8" transform="translate(198.65 208.57)">514.1萬</text><text class="cls-8" transform="translate(287.11 173.96)">526.3萬</text><text class="cls-8" transform="translate(383.65 121.85)">534.0萬</text><text class="cls-8" transform="translate(467.73 192.12)">516.3萬</text><text class="cls-8" transform="translate(562.54 121.53)">536.6萬</text><text class="cls-8" transform="translate(657.34 148.78)">549.9萬</text><text class="cls-8" transform="translate(762.99 81.48)">573.0萬</text><text class="cls-3" transform="translate(88.86 328.89)">2009</text><text class="cls-3" transform="translate(183.6 328.89)">2010</text><text class="cls-3" transform="translate(278.34 328.89)">2011</text><text class="cls-3" transform="translate(373.07 328.89)">2012</text><text class="cls-3" transform="translate(467.81 328.89)">2013</text><text class="cls-3" transform="translate(562.55 328.89)">2014</text><text class="cls-3" transform="translate(657.29 328.89)">2015</text><text class="cls-3" transform="translate(743.04 328.89)">2016</text><text class="cls-9" transform="translate(75.9 349.45)">成長率2.2%</text><text class="cls-9" transform="translate(171.34 349.45)">成長率14.6%</text><text class="cls-9" transform="translate(265.37 349.45)">成長率2.4%</text><text class="cls-9" transform="translate(359.75 349.45)">成長率1.5%</text><text class="cls-9" transform="translate(455.92 349.45)">成長率-3.3%</text><text class="cls-9" transform="translate(549.59 349.45)">成長率3.9%</text><text class="cls-9" transform="translate(644.33 349.45)">成長率2.5%</text><text class="cls-9" transform="translate(730.07 349.45)">成長率4.3%</text><g class="cls-10"><polyline class="cls-12" points="107.19 271.41 198.47 175.98 284.91 151.78 396.93 140.72 486.14 168.38 581.57 140.72 671.47 124.81 762.75 91.62"/></g><line class="cls-13" x1="57.34" y1="52.07" x2="69.98" y2="52.07"/><line class="cls-13" x1="57.34" y1="127.47" x2="69.98" y2="127.47"/><line class="cls-13" x1="57.34" y1="195.19" x2="69.98" y2="195.19"/><line class="cls-13" x1="57.34" y1="262.91" x2="69.98" y2="262.91"/><line class="cls-13" x1="107.06" y1="293.57" x2="107.06" y2="306.21"/><line class="cls-13" x1="200.97" y1="293.57" x2="200.97" y2="306.21"/><line class="cls-13" x1="295.78" y1="293.57" x2="295.78" y2="306.21"/><line class="cls-13" x1="390.59" y1="293.57" x2="390.59" y2="306.21"/><line class="cls-13" x1="484.49" y1="293.57" x2="484.49" y2="306.21"/><line class="cls-13" x1="579.3" y1="293.57" x2="579.3" y2="306.21"/><line class="cls-13" x1="674.11" y1="293.57" x2="674.11" y2="306.21"/><line class="cls-13" x1="759.89" y1="293.57" x2="759.89" y2="306.21"/></g></g></g></svg>