<svg xmlns="http://www.w3.org/2000/svg" viewBox="0 0 48 48"><defs><style>.cls-1{fill:#fff;}</style></defs><title>資產 9line</title><g id="圖層_2" data-name="圖層 2"><g id="圖層_1-2" data-name="圖層 1"><rect class="cls-1" width="48" height="48" rx="4" ry="4"/><path d="M43.67,21.22c0-8.8-8.82-16-19.67-16s-19.67,7.16-19.67,16c0,7.89,7,14.5,16.45,15.75.64.14,1.51.42,1.73,1a4,4,0,0,1,.06,1.78L22.3,41.4c-.09.5-.4,1.95,1.7,1.06S35.33,35.79,39.46,31h0c2.85-3.13,4.22-6.3,4.22-9.82"/><path class="cls-1" d="M20,17H18.62a.38.38,0,0,0-.38.38v8.57a.38.38,0,0,0,.38.38H20a.38.38,0,0,0,.38-.38V17.35A.38.38,0,0,0,20,17"/><path class="cls-1" d="M29.5,17H28.12a.38.38,0,0,0-.38.38v5.09l-3.93-5.3,0,0h0l0,0h0l0,0H22.11a.38.38,0,0,0-.38.38v8.57a.38.38,0,0,0,.38.38h1.38a.38.38,0,0,0,.38-.38V20.83l3.93,5.31a.38.38,0,0,0,.1.09h1.6a.38.38,0,0,0,.38-.38V17.35A.38.38,0,0,0,29.5,17"/><path class="cls-1" d="M16.68,24.16H12.93V17.35a.38.38,0,0,0-.38-.38H11.16a.38.38,0,0,0-.38.38v8.57h0a.38.38,0,0,0,.11.26h0a.38.38,0,0,0,.26.11h5.51a.38.38,0,0,0,.38-.38V24.54a.38.38,0,0,0-.38-.38"/><path class="cls-1" d="M37.12,19.11a.38.38,0,0,0,.38-.38V17.35a.38.38,0,0,0-.38-.38H31.61a.38.38,0,0,0-.27.11h0a.38.38,0,0,0-.11.26h0v8.57h0a.38.38,0,0,0,.11.26h0a.38.38,0,0,0,.26.11h5.51a.38.38,0,0,0,.38-.38V24.54a.38.38,0,0,0-.38-.38H33.37V22.71h3.75a.38.38,0,0,0,.38-.38V20.94a.38.38,0,0,0-.38-.38H33.37V19.11Z"/></g></g></svg>