<svg xmlns="http://www.w3.org/2000/svg" viewBox="0 0 125.84 122.46"><defs><style>.cls-1{fill:#f2f2f2;}</style></defs><title>logo資產 7</title><g id="圖層_2" data-name="圖層 2"><g id="圖層_1-2" data-name="圖層 1"><path class="cls-1" d="M39.35,34.08l15.18,4.59a28,28,0,0,1-4.82,10.67,20.91,20.91,0,0,1-8.17,6.46A30.54,30.54,0,0,1,29.14,58Q20,58,14.21,55.32A23.67,23.67,0,0,1,4.21,46Q0,39.29,0,28.86,0,14.94,7.4,7.47T28.34,0Q38.93,0,45,4.28t9,13.16l-15.3,3.4A13.11,13.11,0,0,0,37,17.1,10,10,0,0,0,33.46,14,10.22,10.22,0,0,0,28.76,13a10.17,10.17,0,0,0-9,4.74q-2.37,3.51-2.37,11,0,9.32,2.83,12.78a9.7,9.7,0,0,0,8,3.46q5,0,7.52-2.79A17.27,17.27,0,0,0,39.35,34.08Z"/><path class="cls-1" d="M63,1H80.35V20.58H99.28V1h17.4V57H99.28V34.34H80.35V57H63Z"/><path class="cls-1" d="M2.54,65.44H55.2V79.28H37.53v42.22H20.21V79.28H2.54Z"/><path class="cls-1" d="M60,103l16.48-1A12.56,12.56,0,0,0,78.68,108a9.16,9.16,0,0,0,7.65,3.4,8.47,8.47,0,0,0,5.72-1.74,5.21,5.21,0,0,0,2-4,5.15,5.15,0,0,0-1.91-3.9q-1.91-1.72-8.87-3.25Q71.88,96,67,91.71a13.69,13.69,0,0,1-4.9-10.82,14.7,14.7,0,0,1,2.51-8.17,16.62,16.62,0,0,1,7.53-6q5-2.2,13.79-2.2,10.75,0,16.39,4t6.71,12.72l-16.33,1a7.63,7.63,0,0,0-8.49-7.23,7,7,0,0,0-4.55,1.28,3.93,3.93,0,0,0-1.53,3.12,3.12,3.12,0,0,0,1.26,2.41q1.22,1.11,5.81,2.07,11.36,2.45,16.27,5A17.11,17.11,0,0,1,108.65,95a15.76,15.76,0,0,1,2.24,8.3,17.77,17.77,0,0,1-3,9.94,18.67,18.67,0,0,1-8.34,6.9,33.69,33.69,0,0,1-13.5,2.35q-14.3,0-19.81-5.51A21.72,21.72,0,0,1,60,103Z"/><rect class="cls-1" x="116.43" y="111.91" width="9.42" height="9.42"/></g></g></svg>